Coordinates
version=1
nRows=16
nColumns=63
inDegrees=yes

Units are S.I. units (second, meters, Newtons, ...)
If the header above contains a line with 'inDegrees', this indicates whether rotational values are in degrees (yes) or radians (no).

endheader
time	pelvis_tilt	pelvis_list	pelvis_rotation	pelvis_tx	pelvis_ty	pelvis_tz	hip_flexion_r	hip_adduction_r	hip_rotation_r	knee_angle_r	knee_angle_r_beta	ankle_angle_r	subtalar_angle_r	mtp_angle_r	hip_flexion_l	hip_adduction_l	hip_rotation_l	knee_angle_l	knee_angle_l_beta	ankle_angle_l	subtalar_angle_l	mtp_angle_l	L5_S1_Flex_Ext	L5_S1_Lat_Bending	L5_S1_axial_rotation	L4_L5_Flex_Ext	L4_L5_Lat_Bending	L4_L5_axial_rotation	L3_L4_Flex_Ext	L3_L4_Lat_Bending	L3_L4_axial_rotation	L2_L3_Flex_Ext	L2_L3_Lat_Bending	L2_L3_axial_rotation	L1_L2_Flex_Ext	L1_L2_Lat_Bending	L1_L2_axial_rotation	L1_T12_Flex_Ext	L1_T12_Lat_Bending	L1_T12_axial_rotation	Abs_r3	Abs_r2	Abs_r1	Abs_t1	Abs_t2	neck_flexion	neck_bending	neck_rotation	arm_flex_r	arm_add_r	arm_rot_r	elbow_flex_r	pro_sup_r	wrist_flex_r	wrist_dev_r	arm_flex_l	arm_add_l	arm_rot_l	elbow_flex_l	pro_sup_l	wrist_flex_l	wrist_dev_l
4.466667	2.855513	-10.019215	90.698696	0.145421	1.163623	0.294323	5.534114	1.326759	-3.378003	16.877600	0.294570	38.835928	9.076633	0.000000	3.701487	-0.205019	-2.615257	11.502429	0.200755	38.515400	2.942470	0.000000	-0.063609	0.410682	-0.072115	-0.118128	0.546207	-0.076622	-0.104503	0.998532	-0.076622	-0.072699	0.998532	-0.063101	-0.059067	0.837463	-0.058594	-0.036346	0.636146	-0.054086	-0.454352	4.645716	-0.401083	0.000000	0.000000	24.403135	4.731305	14.402490	4.376168	-16.637894	48.320066	18.832044	43.086281	-5.839603	-7.503121	-13.235103	-17.209955	11.675821	107.667705	84.082316	23.083448	-25.173459
4.483333	2.892018	-10.142037	90.089618	0.145885	1.163212	0.294449	5.845697	1.411786	-2.734292	17.164873	0.299584	38.855693	8.858359	0.000000	3.606568	-0.188762	-2.566517	11.219899	0.195824	38.256404	2.132504	0.000000	-0.060128	0.420523	0.029660	-0.111663	0.559295	0.031513	-0.098784	1.022459	0.031513	-0.068720	1.022459	0.025952	-0.055835	0.857530	0.024098	-0.034357	0.651390	0.022245	-0.429487	4.757038	0.164958	0.000000	0.000000	24.650380	4.657580	14.652212	4.294660	-16.832999	49.269018	18.650195	41.605672	-6.032909	-7.985719	-12.852002	-17.530502	12.314701	109.183191	83.000589	26.510196	-24.613942
4.500000	2.922754	-10.254673	89.548920	0.146331	1.162824	0.294510	6.140806	1.504161	-2.065474	17.459605	0.304728	38.860286	8.492650	0.000000	3.518632	-0.171139	-2.473709	10.961344	0.191312	37.999650	1.357117	0.000000	-0.056575	0.428764	0.120277	-0.105066	0.570256	0.127794	-0.092947	1.042497	0.127794	-0.064660	1.042497	0.105242	-0.052536	0.874335	0.097725	-0.032327	0.664155	0.090207	-0.404110	4.850264	0.668943	0.000000	0.000000	24.894948	4.512504	14.789540	4.107523	-16.963224	49.159050	18.669644	41.445078	-6.239316	-8.209498	-12.386226	-17.912454	13.007124	110.409471	81.881957	29.914533	-23.820905
4.516667	2.930464	-10.354191	89.024882	0.146843	1.162495	0.294549	6.426726	1.593208	-1.318191	17.768301	0.310115	38.859572	7.994572	0.000000	3.429547	-0.147794	-2.475077	10.716844	0.187044	37.755743	0.738899	0.000000	-0.053538	0.433197	0.209073	-0.099425	0.576152	0.222140	-0.087957	1.053275	0.222140	-0.061188	1.053275	0.182939	-0.049715	0.883376	0.169872	-0.030591	0.671022	0.156805	-0.382414	4.900412	1.162803	0.000000	0.000000	25.110807	4.339764	14.826884	3.897194	-17.063729	48.492863	18.821168	41.937688	-6.466134	-8.255406	-11.845478	-18.294689	13.689599	111.329798	80.537460	33.515714	-22.953452
4.533333	2.940329	-10.449483	88.620314	0.147303	1.162207	0.294566	6.690488	1.695142	-0.578764	18.050808	0.315046	38.845014	7.353594	0.000000	3.385757	-0.135793	-2.437401	10.539372	0.183947	37.543619	0.219489	0.000000	-0.049636	0.436401	0.277052	-0.092179	0.580414	0.294368	-0.081547	1.061066	0.294368	-0.056729	1.061066	0.242421	-0.046092	0.889910	0.225105	-0.028362	0.675986	0.207789	-0.354544	4.936660	1.540881	0.000000	0.000000	25.308963	4.163370	14.817971	3.575758	-17.064712	46.539258	19.178740	43.738813	-6.604436	-7.895711	-11.293186	-18.663484	14.329622	112.059316	79.227440	36.882782	-22.203218
4.550000	2.952460	-10.540042	88.342379	0.147691	1.161975	0.294581	6.928459	1.797436	0.075982	18.294968	0.319307	38.840338	6.686400	0.000000	3.392157	-0.133755	-2.357888	10.434974	0.182125	37.365439	-0.207728	0.000000	-0.045083	0.438319	0.320853	-0.083724	0.582964	0.340906	-0.074067	1.065729	0.340906	-0.051526	1.065729	0.280746	-0.041864	0.893820	0.260693	-0.025761	0.678956	0.240639	-0.322026	4.958354	1.784486	0.000000	0.000000	25.478212	4.008160	14.799364	3.228158	-17.012464	43.920643	19.647458	46.107965	-6.661279	-7.244603	-10.751416	-18.992939	14.878043	112.635647	78.117543	39.911170	-21.622262
4.566667	2.968234	-10.626808	88.209951	0.147966	1.161805	0.294563	7.135407	1.894573	0.599951	18.490875	0.322727	38.843298	6.041872	0.000000	3.451029	-0.141295	-2.224172	10.405506	0.181610	37.233899	-0.537785	0.000000	-0.039046	0.438913	0.329368	-0.072513	0.583754	0.349953	-0.064149	1.067173	0.349953	-0.044626	1.067173	0.288197	-0.036259	0.895032	0.267611	-0.022311	0.679876	0.247026	-0.278905	4.965072	1.831845	0.000000	0.000000	25.614420	3.888128	14.783884	3.015973	-16.959840	41.798105	20.066271	47.940087	-6.678268	-6.554198	-10.275170	-19.252765	15.266202	113.074822	77.302301	42.490285	-21.233431
4.583333	2.990709	-10.716497	88.232257	0.148100	1.161677	0.294489	7.310105	1.989616	0.990939	18.624063	0.325051	38.857330	5.416966	0.000000	3.567254	-0.165025	-2.086379	10.448091	0.182354	37.169453	-0.697195	0.000000	-0.030009	0.439108	0.301979	-0.055730	0.584014	0.320853	-0.049302	1.067647	0.320853	-0.034297	1.067647	0.264232	-0.027866	0.895429	0.245358	-0.017147	0.680178	0.226484	-0.214351	4.967277	1.679518	0.000000	0.000000	25.726663	3.801060	14.795327	2.894889	-16.899718	39.988518	20.437313	49.477512	-6.633959	-5.811055	-9.868379	-19.451508	15.525858	113.349245	76.782772	44.419189	-21.044050
4.600000	3.026464	-10.795408	88.390671	0.148091	1.161612	0.294344	7.442684	2.084073	1.228845	18.705764	0.326477	38.888369	4.857555	0.000000	3.715487	-0.210897	-1.958424	10.546141	0.184065	37.175013	-0.685813	0.000000	-0.019503	0.440630	0.248222	-0.036220	0.586038	0.263736	-0.032042	1.071347	0.263736	-0.022290	1.071347	0.217194	-0.018111	0.898532	0.201681	-0.011144	0.682536	0.186167	-0.139311	4.984492	1.380538	0.000000	0.000000	25.795759	3.736149	14.851141	2.837290	-16.839515	38.466618	20.749975	50.683416	-6.528573	-5.054363	-9.485154	-19.568934	15.663508	113.357429	76.563118	45.786317	-21.033463
4.616667	3.072600	-10.856233	88.661971	0.147938	1.161624	0.294115	7.519876	2.172304	1.305044	18.726657	0.326842	38.930475	4.394979	0.000000	3.876246	-0.274244	-1.861077	10.683830	0.186468	37.242987	-0.506260	0.000000	-0.008601	0.443893	0.175449	-0.015974	0.590377	0.186415	-0.014131	1.079281	0.186415	-0.009831	1.079281	0.153518	-0.007987	0.905186	0.142552	-0.004915	0.687590	0.131587	-0.061439	5.021404	0.975795	0.000000	0.000000	25.832395	3.667964	14.936464	2.832108	-16.787019	37.259198	20.991513	51.563383	-6.375378	-4.328703	-9.128760	-19.589771	15.658403	113.087812	76.612560	46.482270	-20.951503
4.633333	3.134447	-10.893577	89.058537	0.147624	1.161703	0.293754	7.530499	2.258679	1.206268	18.688329	0.326173	38.972523	4.021640	0.000000	4.037589	-0.361431	-1.789229	10.856502	0.189482	37.376035	-0.141787	0.000000	0.002596	0.449560	0.079163	0.004821	0.597915	0.084110	0.004265	1.093060	0.084110	0.002967	1.093060	0.069267	0.002411	0.916743	0.064320	0.001483	0.696368	0.059372	0.018544	5.085512	0.440279	0.000000	0.000000	25.828732	3.594135	15.040244	2.885999	-16.742120	36.415779	21.151171	52.107073	-6.159642	-3.632969	-8.838048	-19.508030	15.480226	112.560015	77.003273	46.223824	-20.642701
4.650000	3.205402	-10.894927	89.475872	0.147234	1.161899	0.293301	7.484212	2.339164	1.016177	18.624797	0.325064	38.989045	3.726231	0.000000	4.150253	-0.459773	-1.777886	11.009733	0.192156	37.529980	0.326930	0.000000	0.010196	0.458366	-0.008668	0.018935	0.609627	-0.009210	0.016751	1.114471	-0.009210	0.011653	1.114471	-0.007585	0.009468	0.934700	-0.007043	0.005826	0.710009	-0.006501	0.072829	5.185125	-0.048211	0.000000	0.000000	25.805006	3.487019	15.152190	2.975811	-16.728927	35.963634	21.225764	52.434453	-6.020343	-3.139215	-8.482732	-19.326623	15.273171	111.615352	77.643514	45.112758	-20.182763
4.666667	3.246829	-10.901315	89.940170	0.146745	1.162118	0.292753	7.421058	2.375656	0.745265	18.542091	0.323621	38.968959	3.440180	0.000000	4.266373	-0.527718	-1.801619	11.164993	0.194866	37.686157	0.906863	0.000000	0.019546	0.465387	-0.106407	0.036298	0.618964	-0.113057	0.032112	1.131541	-0.113057	0.022339	1.131541	-0.093106	0.018150	0.949016	-0.086456	0.011168	0.720884	-0.079805	0.139613	5.264547	-0.591803	0.000000	0.000000	25.796961	3.409706	15.345583	3.111706	-16.712605	35.805927	21.239952	52.417620	-5.852680	-2.747201	-8.168141	-18.966461	14.692680	110.284332	78.607441	43.525577	-19.353641
4.683333	3.287387	-10.882106	90.433421	0.146145	1.162414	0.292068	7.304452	2.391189	0.345565	18.436470	0.321777	38.893441	3.224789	0.000000	4.332047	-0.593873	-1.876293	11.288602	0.197023	37.834146	1.590594	0.000000	0.026291	0.474180	-0.204901	0.048825	0.630659	-0.217707	0.043194	1.152921	-0.217707	0.030048	1.152921	-0.179288	0.024414	0.966948	-0.166482	0.015023	0.734505	-0.153676	0.187794	5.364018	-1.139597	0.000000	0.000000	25.776614	3.331922	15.534205	3.312082	-16.723889	36.116869	21.161680	52.252716	-5.769773	-2.572404	-7.804196	-18.517520	14.094312	108.424393	79.866700	40.746565	-18.507017
4.700000	3.331546	-10.847202	90.885132	0.145457	1.162797	0.291278	7.157836	2.407404	-0.011015	18.313452	0.319630	38.742804	2.955699	0.000000	4.328688	-0.640609	-1.854227	11.324390	0.197648	37.903322	2.100203	0.000000	0.030057	0.487217	-0.293919	0.055818	0.647999	-0.312289	0.049380	1.184620	-0.312289	0.034352	1.184620	-0.257179	0.027911	0.993533	-0.238809	0.017174	0.754699	-0.220439	0.214691	5.511498	-1.634691	0.000000	0.000000	25.751513	3.284782	15.854624	3.580724	-16.787556	36.849385	21.015793	52.011870	-5.770307	-2.607918	-7.334707	-17.907685	13.413786	105.835406	81.315397	37.418698	-17.588827
4.716667	3.384444	-10.803781	91.305764	0.144621	1.163259	0.290396	6.993438	2.413312	-0.417374	18.177511	0.317257	38.553205	2.757852	0.000000	4.268545	-0.679776	-1.820251	11.276119	0.196805	37.918509	2.557286	0.000000	0.031917	0.504921	-0.377623	0.059274	0.671545	-0.401225	0.052437	1.227666	-0.401225	0.036478	1.227666	-0.330420	0.029639	1.029636	-0.306819	0.018238	0.782123	-0.283217	0.227983	5.711772	-2.100226	0.000000	0.000000	25.715304	3.253914	16.240597	3.910646	-16.904376	37.926440	20.821136	51.803215	-5.874359	-2.831534	-6.692823	-17.158132	12.854329	102.322053	82.963292	33.389394	-16.679656
